<?xml version="1.0" encoding="utf-8"?><svg xml:space="preserve" viewBox="0 0 128 128" y="0px" x="0px" xmlns:xlink="http://www.w3.org/1999/xlink" xmlns="http://www.w3.org/2000/svg" id="圖層_1" version="1.1" width="47px" height="47px" style="width:100%;height:100%;background-size:initial;background-repeat-y:initial;background-repeat-x:initial;background-position-y:initial;background-position-x:initial;background-origin:initial;background-image:initial;background-color:rgb(241, 242, 243);background-clip:initial;background-attachment:initial;animation-play-state:paused" ><g class="ldl-scale" style="transform-origin:50% 50%;transform:rotate(0deg) scale(0.8, 0.8);animation-play-state:paused" ><path d="z" fill="none" style="animation-play-state:paused" ></path>
<path d="M45.17,79.62c-2.34-2.04-7.28-1.14-9.22-4.61c-2.05-3.67-1.96-8.1-3.92-11.83c-3.14-5.96-8.49-10.64-15.03-13l-6.05,3.25 c7.09,4.86,11.72,12.85,11.72,21.9c0,5.73,3.94,10.59,9.36,12.15c1.19,0.35,2.44,0.54,3.75,0.54c3.48,0,11.64-1.64,10.52-6.45 C46.11,80.69,45.71,80.08,45.17,79.62z" stroke-miterlimit="12.8" stroke-linejoin="round" stroke-linecap="round" stroke-width="4.48" stroke="#333435" fill="#C33837" style="stroke:rgb(36, 112, 116);fill:rgb(32, 70, 81);animation-play-state:paused" ></path>
<path d="M96.76,62.53c0-12.86,20.28-12.28,20.28,0s-9.08,22.22-20.28,22.22" stroke-miterlimit="12.8" stroke-linejoin="round" stroke-linecap="round" stroke-width="4.48" stroke="#333435" fill="none" style="stroke:rgb(36, 112, 116);animation-play-state:paused" ></path>
<path d="M101.03,68.97c0,17.91-5.34,31.83-35.52,31.83c-31.58,0-35.52-13.93-35.52-31.83c0-12.85,15.9-23.65,35.52-23.65 S101.03,56.12,101.03,68.97z" stroke-miterlimit="12.8" stroke-linejoin="round" stroke-linecap="round" stroke-width="4.48" stroke="#333435" fill="#C33837" style="stroke:rgb(36, 112, 116);fill:rgb(32, 70, 81);animation-play-state:paused" ></path>
<path d="M85.24,65.54c2.34-0.2,4.48-0.46,6.35-0.74" stroke-miterlimit="12.8" stroke-linejoin="round" stroke-linecap="round" stroke-width="4.48" stroke="#333435" fill="#C33837" style="stroke:rgb(36, 112, 116);fill:rgb(32, 70, 81);animation-play-state:paused" ></path>
<path d="M32.27,61.84c0,3.12,18.38,4.61,35.87,4.45" stroke-miterlimit="12.8" stroke-linejoin="round" stroke-linecap="round" stroke-width="4.48" stroke="#333435" fill="#C33837" style="stroke:rgb(36, 112, 116);fill:rgb(32, 70, 81);animation-play-state:paused" ></path>
<g style="animation-play-state:paused" ><path d="M85.24,48.13c-3.75-6.64-11.08-11.15-19.52-11.15S49.95,41.48,46.2,48.13C46.18,51.6,85.24,51.6,85.24,48.13z" stroke-miterlimit="12.8" stroke-linejoin="round" stroke-linecap="round" stroke-width="4.48" stroke="#333435" fill="#F47E5F" style="stroke:rgb(36, 112, 116);fill:rgb(21, 33, 43);animation-play-state:paused" ></path>
<path d="M70.13,38.04c0,1.16-8.84,1.16-8.84,0l-1.83-9.82c0-1.36,12.51-1.36,12.51,0L70.13,38.04z" stroke-miterlimit="12.8" stroke-linejoin="round" stroke-linecap="round" stroke-width="4.48" stroke="#333435" fill="#F47E5F" style="stroke:rgb(36, 112, 116);fill:rgb(21, 33, 43);animation-play-state:paused" ></path></g>
<path d="z" fill="none" style="animation-play-state:paused" ></path>
<metadata xmlns:d="https://loading.io/stock/" style="animation-play-state:paused" ><d:name style="animation-play-state:paused" >teapot</d:name>


<d:tags style="animation-play-state:paused" >make tea,drink,culture,tea ceremony</d:tags>


<d:license style="animation-play-state:paused" >by</d:license>


<d:slug style="animation-play-state:paused" >kpyvvj</d:slug></metadata></g><!-- generated by https://loading.io/ --></svg>